<?xml version="1.0" encoding="utf-8"?>
<!-- Generator: Adobe Illustrator 23.1.0, SVG Export Plug-In . SVG Version: 6.00 Build 0)  -->
<svg version="1.1" id="_x32_" xmlns="http://www.w3.org/2000/svg" xmlns:xlink="http://www.w3.org/1999/xlink" x="0px" y="0px"
	 viewBox="0 0 512 512" style="enable-background:new 0 0 512 512;" xml:space="preserve">
<style type="text/css">
	.st0{fill:#333333;}
</style>
<g>
	<polygon class="st0" points="154.2,205.2 166.2,335 110.9,405.6 96.4,296.6 	"/>
	<polygon class="st0" points="357.8,205.2 345.8,335 401.1,405.6 415.6,296.6 	"/>
	<path class="st0" d="M323.8,62.2C305.1,23.3,275.7,0,256,0s-49.1,23.3-67.8,62.2H323.8z"/>
	<path class="st0" d="M331.3,80.5H180.7c-6.6,19.2-10.6,41.1-10,65.2c1.6,69.1,18,191,18,191l122.6,0l12,0c0,0,16.5-121.9,18-191
		C341.9,121.6,338,99.6,331.3,80.5z M256,231c-23.6,0-42.7-19.1-42.7-42.7s19.1-42.7,42.7-42.7s42.7,19.1,42.7,42.7
		C298.7,211.9,279.6,231,256,231z"/>
</g>
</svg>
